<svg id="Capa_1" enable-background="new 0 0 512.364 512.364" height="512" viewBox="0 0 512.364 512.364" width="512" xmlns="http://www.w3.org/2000/svg"><g><path d="m250.863 99.925h10.608c4.143 0 7.5-3.358 7.5-7.5s-3.357-7.5-7.5-7.5h-10.608c-4.143 0-7.5 3.358-7.5 7.5s3.357 7.5 7.5 7.5z"/><g><path d="m505.146 169.793-37.335-37.334c-2.931-2.93-7.679-2.928-10.607 0-2.929 2.929-2.929 7.678 0 10.606l37.335 37.334c3.262 3.261 3.53 8.535.6 11.755-3.23 3.549-8.691 3.63-12.021.298l-20.806-20.807c-2.926-2.925-7.668-2.93-10.598-.009-2.931 2.92-2.942 7.662-.027 10.598 3.131 3.152 3.027 8.282-.305 11.308-3.033 2.754-8 2.494-11.072-.578-16.506-16.506-37.578-37.578-53.168-53.167-2.93-2.929-7.678-2.929-10.607 0s-2.929 7.678 0 10.606l38.155 38.155c3.147 3.146 3.055 8.288-.28 11.323-3.033 2.761-8.002 2.504-11.08-.573l-43.862-43.862c-2.93-2.929-7.678-2.929-10.607 0s-2.929 7.678 0 10.606l16.79 16.79c3.147 3.146 3.055 8.288-.28 11.323-3.033 2.761-8.004 2.502-11.08-.574l-36.274-36.274c16.352-5.226 31.364-14.31 43.689-26.634l15.278-15.28c2.17-2.17 5.701-2.169 7.871 0l28.245 28.245c2.93 2.929 7.678 2.929 10.607 0s2.929-7.678 0-10.606l-28.246-28.245c-8.018-8.018-21.064-8.017-29.084 0l-15.278 15.281c-15.734 15.732-36.194 24.994-57.224 26.959-2.043.193-4.177.324-6.306.383l.666-16.616c19.345-.787 37.275-8.613 51.125-22.463l23.632-23.632c4.788-4.789 11.155-7.426 17.927-7.426s13.139 2.637 17.927 7.426l33.303 33.301c2.928 2.93 7.677 2.929 10.606 0s2.929-7.678 0-10.606l-33.303-33.304c-7.621-7.622-17.755-11.819-28.534-11.819-10.778 0-20.912 4.198-28.534 11.82l-23.632 23.632c-10.846 10.845-24.818 17.102-39.915 18.017l.309-7.716c.053-1.331.666-2.557 1.641-3.281 15.71-11.667 24.457-30.312 23.399-49.877-1.231-22.786-20.041-54.876-58.004-54.876-13.323 0-26.364 4.678-36.722 13.172-3.203 2.627-3.67 7.353-1.043 10.555 2.627 3.204 7.354 3.669 10.555 1.043 7.683-6.3 17.346-9.77 27.21-9.77 28.16 0 42.112 23.792 43.025 40.687.785 14.526-5.706 28.367-17.364 37.025-4.648 3.452-7.449 8.819-7.686 14.724l-7.315 182.507c-7.097-1.244-14.301-2.434-21.466-3.607l-7.17-178.906c-.234-5.853-3.118-11.278-7.911-14.886-12.975-9.767-19.273-25.973-16.599-41.654.697-4.083-2.047-7.958-6.13-8.655-4.09-.693-7.958 2.048-8.655 6.131-3.631 21.268 4.959 43.063 22.363 56.164 1.182.889 1.89 2.165 1.943 3.501l.31 7.723c-15.105-.913-29.069-7.173-39.915-18.019l-23.632-23.632c-7.622-7.622-17.756-11.819-28.534-11.82-10.457 0-20.689 3.974-28.534 11.819l-95.694 95.691c-8.99 8.991-9.468 23.248-1.086 32.458 9.161 10.068 24.527 10.002 33.723.809l5.672-5.673c1.266 2.713 3.076 5.176 5.372 7.261 8.965 8.141 22.804 7.722 31.605-.92 1.262 2.707 3.066 5.165 5.355 7.248 9.007 8.197 22.968 7.754 31.783-1.061l11.902-11.902c1.262 2.707 3.065 5.164 5.354 7.247 9.019 8.208 22.978 7.742 31.783-1.061l40.635-40.635c1.407-1.407 3.336-2.083 5.294-1.853 3.449.403 7.049.657 10.787.726l2.134 53.246c-5.099-3.096-11.091-4.871-17.501-4.871h-5.811c-7.664 0-15.137 2.682-21.043 7.552-3.47 2.861-7.798 4.86-12.519 5.782-4.473.873-8.687 1.86-12.525 2.935-10.955 3.066-19.482 6.948-26.066 11.867-13.055 9.749-15.795 21.435-15.795 29.521 0 28.955 34.677 39.352 46.072 42.769 2.054.616 4.173 1.214 6.348 1.796-.452.3-.895.602-1.329.908-14.588 10.253-17.65 22.419-17.65 30.819 0 9.625 3.602 25.646 25.062 35.539-2.727 5.148-4.138 10.906-4.138 17.047 0 8.726 2.99 23.319 20.338 34.437-5.945 8.796-8.368 23.008 5.966 44.571 3.757 5.65 10.781 7.861 17.075 5.404 6.276-2.45 9.92-8.815 8.861-15.479-.893-5.613 2.69-11.04 8.156-12.354 1.772-.426 3.746-.847 5.996-1.279l1.722 42.975c.377 9.396 8.028 16.745 17.428 16.745 9.393 0 17.056-7.357 17.432-16.745l1.723-42.975c2.124.408 4.132.832 5.995 1.28 5.467 1.313 9.05 6.74 8.157 12.354-1.059 6.663 2.585 13.028 8.862 15.478 6.307 2.462 13.327.233 17.074-5.405 9.852-14.821 12.895-27.789 9.045-38.543-.765-2.137-1.786-4.151-3.06-6.04 17.441-11.189 20.319-25.931 20.319-34.424 0-4.658-.844-10.815-4.147-17.05 21.56-9.937 25.071-26.087 25.071-35.536 0-8.4-3.062-20.565-17.65-30.819-.435-.305-.878-.608-1.331-.908 2.221-.594 4.335-1.191 6.35-1.795 11.396-3.417 46.072-13.814 46.072-42.769 0-8.086-2.74-19.771-15.794-29.52-6.585-4.919-15.112-8.801-26.067-11.868-3.839-1.074-8.053-2.062-12.525-2.935-4.721-.921-9.049-2.92-12.519-5.781-5.906-4.87-13.379-7.552-21.043-7.552h-5.793c-6.419 0-12.416 1.779-17.519 4.88l2.135-53.255c3.573-.067 7.18-.305 10.787-.727 1.965-.229 3.888.447 5.293 1.853l40.636 40.636c8.804 8.804 22.765 9.269 31.783 1.061 2.289-2.083 4.093-4.54 5.354-7.247l11.902 11.902c8.811 8.81 22.773 9.262 31.783 1.061 2.289-2.083 4.094-4.541 5.355-7.248 8.8 8.641 22.64 9.061 31.605.92 2.296-2.085 4.106-4.548 5.371-7.261l5.674 5.673c9.186 9.187 24.553 9.268 33.722-.809 8.384-9.212 7.906-23.469-1.084-32.46zm-222.115 90.793c.871.135 1.759.205 2.659.205h23.54c21.569 1.822 33.71 5.002 40.265 7.492-3.357 1.455-8.167 3.199-14.975 5.074-14.847 4.088-34.178 7.487-52.422 10.503zm-124.955-66.995c-3.075 3.076-8.045 3.334-11.08.574-3.33-3.03-3.432-8.172-.28-11.323l16.79-16.79c2.929-2.929 2.929-7.678 0-10.606-2.93-2.929-7.678-2.929-10.607 0l-43.862 43.862c-3.075 3.077-8.046 3.334-11.08.573-3.33-3.03-3.432-8.172-.28-11.323l38.155-38.155c2.929-2.929 2.929-7.678 0-10.606s-7.677-2.93-10.607 0c-15.589 15.589-36.663 36.662-53.168 53.167-3.073 3.072-8.041 3.332-11.072.578-3.328-3.023-3.439-8.153-.305-11.308 2.915-2.936 2.903-7.677-.027-10.598-2.932-2.921-7.672-2.916-10.598.009l-20.805 20.806c-3.358 3.357-8.813 3.229-12.022-.297-2.931-3.221-2.662-8.494.6-11.755l95.694-95.693c4.788-4.789 11.154-7.426 17.927-7.426 6.771 0 13.139 2.638 17.927 7.426l23.632 23.632c13.851 13.851 31.782 21.677 51.126 22.463l.666 16.616c-24.664-.687-47.124-10.938-63.529-27.342l-15.28-15.281c-8.018-8.018-21.064-8.017-29.084.001l-28.245 28.245c-2.929 2.929-2.929 7.678 0 10.606 2.93 2.929 7.678 2.929 10.607 0l28.244-28.244c2.171-2.171 5.702-2.171 7.871-.001l15.28 15.281c12.324 12.324 27.336 21.408 43.688 26.634zm49.682 271.837c-9.597-15.644-6.627-23.134-3.143-26.919 4.719 1.782 9.779 3.255 14.657 4.458-7.3 4.91-11.808 13.403-11.514 22.461zm50.866 29.591c-.053 1.31-1.121 2.345-2.442 2.345-1.316 0-2.388-1.029-2.44-2.346l-1.848-46.103c2.922.433 5.804.855 8.528 1.264zm45.984-29.602c.394-12.1-7.798-23.2-19.773-26.078-33.786-8.12-99.197-7.244-99.197-41.995 0-4.533 1.227-8.586 3.653-12.096 3.942.966 8.128 1.762 12.488 2.429-3.22 2.339-5.453 5.449-5.453 9.668 0 18.196 37.844 22.989 62.581 26.641 12.776 1.887 24.845 3.669 33.996 6.467 6.788 2.075 15.064 5.764 17.443 12.412 2.387 6.667-1.441 15.514-5.738 22.552zm-5.962-67.144c-2.936 1.588-8.987 3.924-21.393 6.502l.438-10.921c6.385.762 14.997 2.075 20.955 4.419zm-36.586 11.015c-3.994-.59-7.814-1.151-11.827-1.789l-.635-15.853c4.413.252 8.826.519 13.136.83zm-27.386-15.425.437 10.921c-6.202-1.285-15.774-3.545-21.327-6.536 5.983-2.339 14.542-3.628 20.89-4.385zm74.95 27.42c-4.427-2.519-9.196-4.296-14.012-5.671 12.795-4.094 20.427-9.609 20.427-18.268 0-9.443-11.185-13.334-19.598-15.44-43.899-10.988-131.728 2.7-131.728-37.146 0-7.048 3.794-13.288 11.275-18.547 4.058-2.852 9.213-5.45 15.714-7.916 7.398 1.477 15.087 2.857 22.868 4.185-3.706.929-7.099 1.863-10.251 2.82-19.188 5.824-28.918 12.37-28.918 19.457 0 9.444 11.185 13.335 19.598 15.44 27.58 6.903 75.099 4.095 104.037 11.337 18.374 4.6 27.69 13.283 27.69 25.809.001 9.971-5.749 18.011-17.102 23.94zm7.518-76.599c-.99.315-2.126.639-3.42.963-9.139 2.287-21.569 3.437-34.27 4.267l.644-16.065c11.023 2.279 26.916 5.954 37.046 10.835zm-52.778 7.117c-5.443-.382-10.945-.695-16.404-1.001l-.92-22.954c6.125 1.018 12.218 2.056 18.158 3.132zm-31.452-1.887c-12.903-.844-25.198-1.997-34.271-4.268-1.294-.324-2.429-.648-3.419-.963 10.151-4.891 26.009-8.545 37.047-10.829zm114.739-5.156c0 10.672-6.808 18.574-20.251 23.528-3.441-2.719-7.677-5.245-12.881-7.425.971-.211 1.921-.431 2.845-.662 8.414-2.105 19.599-5.997 19.599-15.44 0-26.019-118.356-32.311-170.309-47.891-9.677-2.901-35.381-10.608-35.381-28.401 0-6.772 3.287-12.661 9.771-17.502 5.078-3.793 11.99-6.881 21.134-9.44 3.455-.967 7.275-1.861 11.355-2.657 7.164-1.398 13.799-4.486 19.188-8.931 3.272-2.699 7.249-4.125 11.5-4.125h5.811c9.756 0 17.761 7.416 18.59 17.037-.069.54.356 1.445-.497 2.331-.268.279-.733.611-1.434.611-25.212.009-23.903-.023-24.496.026-37.164 3.104-59.103 11.051-60.19 21.804-.147 1.461.137 2.935.818 4.236 3.013 5.75 13.455 11.12 31.038 15.962 3.992 1.1 8.122-1.246 9.222-5.24 1.101-3.994-1.246-8.123-5.239-9.222-6.808-1.875-11.617-3.619-14.975-5.074 6.555-2.489 18.695-5.67 40.265-7.492h23.558c.894 0 1.776-.068 2.641-.202l.933 23.269c-5.942-.984-11.89-1.991-17.656-3.024-4.085-.728-7.976 1.982-8.706 6.06-.73 4.077 1.982 7.975 6.06 8.705 48.961 8.773 103.746 14.681 126.413 30.613 7.48 5.258 11.274 11.498 11.274 18.546zm-45.301-118.947h5.793c4.251 0 8.228 1.426 11.5 4.125 5.39 4.444 12.024 7.532 19.188 8.93 4.08.797 7.9 1.691 11.355 2.658 9.144 2.56 16.056 5.647 21.135 9.441 6.482 4.841 9.77 10.73 9.77 17.502 0 17.792-25.704 25.5-35.381 28.401-6.634 1.99-14.477 3.92-23.921 5.885-7.46-2.575-15.45-4.697-23.134-6.486 14.147-2.478 28.191-5.238 39.848-8.448 17.582-4.842 28.025-10.212 31.038-15.962.682-1.301.966-2.774.818-4.236-1.088-10.752-23.026-18.7-60.19-21.804-.588-.049.715-.017-24.479-.026-.7 0-1.166-.332-1.434-.611-.755-.787-.508-1.612-.537-1.768.558-9.895 8.683-17.601 18.631-17.601z"/></g></g></svg>